Patient4_TMGait_0pt3_03_right_09_EMG.mot
version=1
nRows=26
nColumns=33
inDegrees=no
endheader
time	1LAddLong	2LGlutMax	3LGlutMed	4LIliopsoas	5LSemiMemb	6LBicFemLong	7LRecFem	8LVastMed	9LVastLat	10LGasMed	11LTibAnt	12lTibPost	13LPeroneusLong	14LSol	15LExtDigLong	16LFlexDigLong	17RAddLong	18RGlutMax	19RGlutMed	20RIliopsoas	21RSemiMemb	22RBicFemLong	23RRecFem	24RVastMed	25RVastLat	26RGasMed	27RTibAnt	28RTibPost	29RPeroneusLong	30RSol	31RExtDigLong	32RFlexDigLong
19.038	0.004425	-0.009308	-0.089722	0.002289	-0.016022	-0.021362	-0.098724	0.010986	0.20187	0.064697	-0.006409	0.005951	0.055542	0.067444	0.080719	0.026398	-0.052032	0.02243	0.049438	0.20432	0.061035	0.0383	0.022583	-0.02243	0.04425	0.005493	0.52719	-0.007629	-0.1358	-0.043945	-0.018005	0.001221
19.039	0.003052	-0.056763	0.11398	0.019379	-0.063171	-0.019073	-0.026093	0.027466	0.005341	0.073853	0.005646	0.005798	-0.25253	0.059052	0.014954	0.011444	-0.038757	0.018616	0.31799	0.16892	0.059357	0.057678	0.040588	-0.066833	0.040588	-0.00061	0.46173	-0.005798	-0.20584	0.042267	-0.019836	-0.00824
19.04	-0.00946	-0.1178	0.30579	0.050507	-0.083771	-0.016479	0.060425	0.014648	-0.088501	0.062103	-0.003967	-0.002747	-0.26169	0.058899	-0.020447	0.002747	-0.04364	0.032349	0.23453	0.11383	0.069275	0.051422	0.048523	-0.011444	0.043488	-0.001831	0.56946	-0.005188	-0.13825	0.017395	-0.018158	-0.005646
19.041	-0.001831	-0.16922	0.3154	0.041351	-0.06485	-0.015564	0.037689	0.001526	0.002136	0.0177	-0.005035	-0.00351	-0.11185	0.13641	0.025635	-0.005646	-0.059662	-0.000916	0.037537	0.056152	0.075073	0.054626	0.10803	-0.035095	0.038452	-0.012207	0.13199	-0.007324	-0.089111	-0.034637	-0.019531	-0.000763
19.042	-0.011902	-0.10513	0.19363	-0.004425	-0.038147	0.007477	-0.000153	-0.010223	0.067902	0.019989	0.007172	-0.00351	0.15167	0.047913	0.015564	-0.000305	-0.041199	0.008698	-0.077209	-0.006256	0.06134	0.042114	0.25345	-0.042877	0.050049	-0.006409	-0.7309	-0.00946	-0.029755	-0.019379	-0.02655	-0.003357
19.043	-0.001678	-0.16083	0.083618	-0.024109	-0.050201	-0.012817	-0.018463	-0.011749	0.1062	-0.003815	0.028839	-0.008087	-0.027924	-0.001678	0.023956	0.001526	-0.023499	0.016632	-0.18051	0.018311	0.066528	0.024872	0.24643	0.016327	0.040436	-0.010376	-0.78537	-0.004578	-0.2002	-0.003052	-0.021515	-0.002441
19.044	0.007172	-0.13962	0.055695	-0.00473	0.011292	0.020294	-0.040588	-0.005951	0.12604	0.019836	0.030212	0.001373	-0.12619	-0.034027	0.011597	-0.004272	-0.021057	0.054779	-0.17975	0.093689	0.055389	0.021667	0.18112	-0.022278	0.033112	-0.005951	-0.43121	-0.005188	-0.20966	-0.062256	-0.020142	-0.007629
19.045	0.003662	-0.16449	0.053101	0.002594	0.051727	0.093384	0.009918	-0.002594	0.17502	0.051117	0.000153	-0.001984	0.054932	-0.011292	0.041351	0.007172	-0.033112	-0.057831	-0.061798	0.079651	0.036011	-0.020599	0.036926	-0.042725	0.019226	0.003357	0.034027	-0.005035	-0.11459	-0.10101	-0.0177	-0.006561
19.046	-0.00473	-0.13016	0.1619	0.003052	0.072479	0.083008	-0.002594	0.001068	0.1738	0.027771	-0.00473	0.000305	0.48767	0.16525	0.063324	0.010071	-0.040894	-0.041656	0.095215	0.15259	0.039368	-0.032806	-0.004425	-0.054169	-0.007324	0.015869	0.23102	-0.001678	-0.00946	-0.17166	-0.015106	0.001678
19.047	0.005646	-0.1648	0.10986	0.006714	0.060425	0.04715	-0.014801	-0.002136	0.066986	0	-0.015411	-0.001221	0.79147	0.15549	-0.052948	0.009308	-0.021667	-0.030975	0.14923	0.13611	0.034943	-0.042267	-0.085144	-0.097046	-0.030975	0.014801	-0.024109	-0.001526	0.009308	-0.17364	-0.016479	-0.011292
19.048	-0.006561	-0.095062	0.10056	0.000305	0.008392	0.11246	0.025177	-0.001068	-0.091705	-0.00885	-0.00412	0.002441	0.13626	0.23682	0.021057	-0.045929	0.005798	-0.019226	0.18265	0.038605	0.025024	-0.041504	-0.069733	-0.14252	-0.020447	-0.005341	-0.11505	-0.004272	-0.046692	-0.10941	-0.015564	-0.011292
19.049	-0.003815	-0.090637	0.032654	0.00946	-0.055389	0.065308	0.077057	0.000916	-0.23117	-0.052643	0.026398	-0.010834	-0.29373	0.23773	0.002747	-0.013733	0.014191	0.013733	0.13351	-0.012512	0.025482	-0.032349	-0.00061	-0.14694	-0.018005	-0.013428	-0.006714	-0.006561	-0.10391	-0.048065	-0.012817	-0.015106
19.05	-0.005341	-0.1358	-0.044098	0.020142	-0.014191	0.023651	0.068817	-0.001068	-0.28549	-0.001373	0.018463	0.005951	0.026245	0.22095	-0.029907	0.082092	0.038757	-0.015869	0.09903	-0.014038	0.022583	-0.04303	-0.005341	-0.1387	-0.013885	-0.00946	0.082092	-0.004883	-0.093689	0.001373	-0.019379	-0.013275
19.051	0.006104	-0.14496	-0.044556	0.025635	0.01709	-0.14969	0.04776	0.004883	-0.17181	0.030975	-0.003204	-0.003204	-0.16327	0.094299	0.036926	-0.087738	0.045013	-0.039368	0.17349	-0.0177	0.021362	-0.019684	0.010834	-0.094604	-0.000458	0.004272	0.2475	-0.002594	0.082703	-0.068512	-0.016174	-0.013123
19.052	0.007172	-0.15656	-0.02533	0.010986	0.069733	0.003357	0.06073	0.003967	-0.103	0.13886	0.00824	-0.001068	-0.23071	-0.007172	-0.047302	-0.000916	0.050201	0.016785	0.36316	-0.049286	0.024719	-0.006866	-0.046082	-0.057068	0.006561	0.00473	0.59769	-0.005035	0.10757	-0.065155	-0.015717	-0.011902
19.053	0.004578	-0.11917	0.053406	0.003204	0.07843	0.017242	0.042419	0.012512	-0.05249	0.057831	0.001068	0.006866	-0.066376	-0.23148	-0.039978	0.30075	0.062561	-0.016785	0.1619	-0.03479	0.021667	-0.007324	0.034332	-0.015411	0.016937	-0.000153	0.41122	-0.005341	-0.071564	0.01358	-0.014801	-0.00946
19.054	0.001526	-0.12909	0.036316	-0.007629	0.10193	0.062256	0.054169	0.008392	-0.056458	-0.16022	-0.009003	0.003052	-0.10178	-0.47119	0.057373	-0.002289	0.054016	-0.013885	0.080261	-0.009918	0.021057	-0.005035	0.065155	0.008392	0.017242	-0.010376	-0.23956	0.002136	-0.18204	0.089111	-0.014496	-0.011292
19.055	-0.012817	-0.12192	-0.11337	-0.001526	0.084991	0.19913	0.039368	0.004425	-0.064545	-0.13931	0.012665	-0.014038	-0.30533	-0.35034	0.075531	-0.15213	0.0383	0.06424	0.084991	-0.004578	0.016937	0.00061	0.006256	0.027771	0.026245	-0.010986	-0.045166	-0.001526	-0.16586	0.059662	-0.014648	-0.00473
19.056	-0.002136	-0.16769	-0.27557	0.023651	0.032806	0.19867	0.011902	0.01236	-0.045929	0.045013	-0.002747	-0.031281	0.14664	-0.21347	0.06546	-0.08728	0.005493	-0.015564	0.004425	0.000458	0.015259	0.015106	-0.060577	0.016785	0.032501	-0.006104	-0.10452	-0.003357	-0.035248	-0.015869	-0.025024	-0.007019
19.057	0.010681	-0.11978	-0.13077	0.008392	-0.015106	0.13153	0.035858	-0.002594	-0.034332	-0.16144	-0.020142	0.014648	0.12405	-0.14648	-0.000458	-0.052948	-0.003204	0.002747	0.073395	-0.094757	0.014954	0.017242	-0.023346	0.02655	0.037079	-0.003967	-0.3656	-0.001221	0.11383	-0.064392	-0.00824	-0.003357
19.058	0.015869	-0.12833	-0.159	0.001678	-0.011749	0.049591	-0.09079	-0.002899	0.017853	-0.40253	-0.018921	-0.17136	-0.20111	-0.17059	0.008087	0.04837	-0.00412	0.009918	0.24277	-0.25757	0.021057	0.012817	-0.042267	0.055084	0.018921	-0.011292	-0.072327	-0.003052	0.103	-0.004578	-0.013123	-0.002594
19.059	0.020599	-0.10712	-0.13458	0.029755	-0.02243	-0.017853	-0.16419	-0.00061	0.03952	-0.31464	-0.024414	-0.011902	-0.15305	-0.21423	0.001373	0.039978	-0.01358	-0.024414	0.30273	-0.26749	0.020752	0.034332	0.031128	0.002594	0.02533	-0.001831	-0.28793	-0.003967	0.082703	-0.090332	-0.014496	0.008087
19.06	0.014496	-0.09079	-0.06073	0.024719	0.027161	-0.055084	-0.12878	0.004425	0.021667	0.12283	-0.033722	0.19241	-0.067749	-0.088959	0.02655	0.055542	-0.009613	0.022278	0.33539	-0.17364	0.026855	0.022736	0.048523	0.016479	0.029297	0.001984	-0.048218	-0.001526	-0.015411	-0.17609	-0.014191	0.003052
19.061	0.003357	-0.085449	0.032501	0.023804	0.053711	-0.042267	-0.001221	0.007019	0.006866	0.30685	-0.011139	0.05127	-0.17227	-0.43701	-0.012054	0.046387	0.008698	-0.018616	0.40558	-0.067596	0.022583	0.011902	0.080566	0.017853	0.041046	0.004425	0.23621	-0.001678	-0.099335	-0.13306	0.004883	-0.000153
19.062	0.007019	-0.083771	0.43274	-0.007019	0.035706	-0.15533	0.036774	0.012665	0.001984	0.19241	0.001221	-0.015411	-0.13718	-0.15457	-0.062714	0.0177	0.003052	-0.028687	0.53741	0.2243	0.015106	0.003052	0.076904	0.004425	0.02533	0.006561	0.22247	-0.002136	-0.03006	-0.16647	-0.014343	-0.000153
19.063	0.014038	-0.081329	0.46417	0	0.034027	-0.21301	0.014648	0.006409	-0.003357	0.30991	0.016174	-0.016174	-0.15808	0.053558	-0.073395	-0.001221	-0.004425	-0.041199	0.14404	0.37415	0.014191	0.012665	0.055847	-0.050049	0.020905	0.006409	0.079346	-0.001678	-0.061646	-0.18463	-0.010223	-0.01236
